<svg width="334" height="32" viewBox="0 0 334 32" fill="none" xmlns="http://www.w3.org/2000/svg">
<path d="M19.88 19.12L15.04 6.8L10.16 19.12H19.88ZM29.16 30.88H24.52L21.48 23.24H8.52L5.44 30.88H0.84L13 1.04H17.36L29.16 30.88ZM56.9228 30.72H51.0028L38.6428 18V30.72H34.3628V1.12H38.6428V12.48L50.0028 1.12H55.8028L41.6428 15.08L56.9228 30.72ZM65.1438 30.72H60.7438V1.12H65.1438V30.72ZM89.3688 5.08H81.2488V30.72H76.8888V5.08H68.8088V1.12H89.3688V5.08ZM109.646 19.12L104.806 6.8L99.9256 19.12H109.646ZM118.926 30.88H114.286L111.246 23.24H98.2856L95.2056 30.88H90.6056L102.766 1.04H107.126L118.926 30.88Z" fill="#E7008A"/>
<path d="M127.728 26.6H129.728C134.315 26.6 136.608 25.08 136.608 22.04C136.608 20.0933 135.822 18.7733 134.248 18.08C133.208 17.6267 131.555 17.4 129.288 17.4H127.728V26.6ZM127.808 13.28H130.008C133.848 13.28 135.768 11.84 135.768 8.96C135.768 6.45333 134.075 5.2 130.688 5.2H127.808V13.28ZM123.448 1.12H130.688C136.902 1.12 140.008 3.62667 140.008 8.64C140.008 11.9733 138.382 14.1467 135.128 15.16C136.888 15.6667 138.275 16.52 139.288 17.72C140.355 18.9467 140.888 20.4 140.888 22.08C140.888 27.84 137.142 30.72 129.648 30.72H123.448V1.12ZM159.746 4.56C156.973 4.56 154.786 5.73333 153.186 8.08C151.72 10.1867 150.986 12.8 150.986 15.92C150.986 19.0667 151.72 21.6933 153.186 23.8C154.786 26.1467 156.973 27.32 159.746 27.32C162.52 27.32 164.706 26.1467 166.306 23.8C167.746 21.6933 168.466 19.0667 168.466 15.92C168.466 12.8267 167.746 10.2133 166.306 8.08C164.706 5.73333 162.52 4.56 159.746 4.56ZM159.746 0.52C164.013 0.52 167.333 2.10667 169.706 5.28C171.813 8.10667 172.853 11.6533 172.826 15.92C172.773 20.5867 171.68 24.2667 169.546 26.96C167.226 29.8933 163.96 31.36 159.746 31.36C155.56 31.36 152.28 29.8933 149.906 26.96C147.72 24.2133 146.626 20.5333 146.626 15.92C146.626 11.6 147.666 8.04 149.746 5.24C152.093 2.09333 155.426 0.52 159.746 0.52ZM196.791 5.08H188.671V30.72H184.311V5.08H176.231V1.12H196.791V5.08ZM242.918 30.88H238.638V7.8L229.558 30.68H226.038L216.638 7.8V30.88H212.318V1.04H218.078L227.758 24.76L237.158 1.04H242.918V30.88ZM272.628 1.04V20.36C272.628 24.36 271.362 27.3067 268.828 29.2C266.935 30.64 264.588 31.36 261.788 31.36C259.015 31.36 256.668 30.64 254.748 29.2C252.242 27.3333 250.988 24.3867 250.988 20.36V1.04H255.348V20.16C255.348 22.32 255.895 24.0267 256.988 25.28C258.108 26.6133 259.708 27.28 261.788 27.28C263.868 27.28 265.495 26.6133 266.668 25.28C267.735 24.0533 268.268 22.3467 268.268 20.16V1.04H272.628ZM293.77 5.64C292.437 4.97333 290.65 4.64 288.41 4.64C284.943 4.64 283.21 5.92 283.21 8.48C283.21 9.70667 284.29 11 286.45 12.36C288.237 13.5067 289.637 14.4133 290.65 15.08C291.663 15.7467 292.277 16.1867 292.49 16.4C294.65 18.2933 295.73 20.48 295.73 22.96C295.73 25.7333 294.663 27.9067 292.53 29.48C290.717 30.8133 288.543 31.48 286.01 31.48C283.477 31.48 281.157 31.0133 279.05 30.08L279.57 25.64C281.57 26.76 283.77 27.32 286.17 27.32C289.717 27.32 291.49 25.76 291.49 22.64C291.49 21.4133 290.41 20.08 288.25 18.64C286.303 17.3333 284.823 16.3333 283.81 15.64C282.823 14.9467 282.29 14.5733 282.21 14.52C280.077 12.68 279.01 10.6667 279.01 8.48C279.01 6 279.97 4.01333 281.89 2.52C283.623 1.18667 285.81 0.52 288.45 0.52C290.637 0.52 292.65 0.866666 294.49 1.56L293.77 5.64ZM305.847 30.72H301.447V1.12H305.847V30.72ZM333.432 30C331.939 30.8267 329.605 31.24 326.432 31.24C321.872 31.24 318.232 29.8533 315.512 27.08C312.819 24.2533 311.472 20.5333 311.472 15.92C311.472 11.36 312.845 7.66667 315.592 4.84C318.339 2.01333 321.952 0.599998 326.432 0.599998C329.685 0.599998 332.019 0.959999 333.432 1.68L333.112 5.76C331.299 5.04 329.072 4.68 326.432 4.68C323.205 4.68 320.632 5.72 318.712 7.8C316.792 9.88 315.832 12.5867 315.832 15.92C315.832 19.3867 316.765 22.1067 318.632 24.08C320.525 26.1333 323.125 27.16 326.432 27.16C329.232 27.16 331.459 26.72 333.112 25.84L333.432 30Z" fill="white"/>
</svg>
