<svg width="1920" height="292" viewBox="0 0 1920 292" fill="none" xmlns="http://www.w3.org/2000/svg">
<path d="M0 78.5L29.0667 83.5516C58.1333 88.9844 116 98.5156 174.667 98.8016C232.667 98.5156 290.667 88.9844 349.333 93.75C407.333 98.5156 465.333 119.484 524 129.302C581.867 139.5 640 139.5 698.667 139.5C756.4 139.5 814.667 139.5 873.333 149.698C930.933 159.516 989.333 180.484 1046.67 154.75C1105.47 129.016 1164 58.4844 1221.33 27.6984C1280 -2.51563 1338.67 7.01562 1396 17.5C1454.53 27.9844 1513.33 37.5156 1570.67 32.75C1629.07 27.9844 1686.67 7.01562 1745.33 2.24999C1803.6 -2.51563 1861.33 7.01562 1890.67 12.4484L1920 17.5V292H1890.93C1861.87 292 1804 292 1745.33 292C1687.33 292 1629.33 292 1570.67 292C1512.67 292 1454.67 292 1396 292C1338.13 292 1280 292 1221.33 292C1163.6 292 1105.33 292 1046.67 292C989.067 292 930.667 292 873.333 292C814.533 292 756 292 698.667 292C640 292 581.333 292 524 292C465.467 292 406.667 292 349.333 292C290.933 292 233.333 292 174.667 292C116.4 292 58.6667 292 29.3333 292H0V78.5Z" fill="#E7008A"/>
</svg>
